HIERARCHY
ROOT root
{
	OFFSET 0.000000 0.000000 0.000000
	CHANNELS 6 Xposition Yposition Zposition Zrotation Yrotation Xrotation
	JOINT lhip
	{
		OFFSET 0.058581 -0.082280 -0.017664
		CHANNELS 3 Zrotation Yrotation Xrotation
		JOINT lknee
		{
			OFFSET 0.043451 -0.386469 0.008037
			CHANNELS 3 Zrotation Yrotation Xrotation
			JOINT lankle
			{
				OFFSET -0.014790 -0.426874 -0.037428
				CHANNELS 3 Zrotation Yrotation Xrotation
				JOINT ltoe
				{
					OFFSET 0.041054 -0.060286 0.122042
					CHANNELS 3 Zrotation Yrotation Xrotation
					End Site
					{
						OFFSET 0.000000 0.000000 0.000000
					}
				}
			}
		}
	}
	JOINT rhip
	{
		OFFSET -0.060310 -0.090513 -0.013543
		CHANNELS 3 Zrotation Yrotation Xrotation
		JOINT rknee
		{
			OFFSET -0.043257 -0.383688 -0.004843
			CHANNELS 3 Zrotation Yrotation Xrotation
			JOINT rankle
			{
				OFFSET 0.019056 -0.420046 -0.034562
				CHANNELS 3 Zrotation Yrotation Xrotation
				JOINT rtoe
				{
					OFFSET -0.034840 -0.062106 0.130323
					CHANNELS 3 Zrotation Yrotation Xrotation
					End Site
					{
						OFFSET 0.000000 0.000000 0.000000
					}
				}
			}
		}
	}
	JOINT lowerback
	{
		OFFSET 0.004439 0.124404 -0.038385
		CHANNELS 3 Zrotation Yrotation Xrotation
		JOINT upperback
		{
			OFFSET 0.004488 0.137956 0.026820
			CHANNELS 3 Zrotation Yrotation Xrotation
			JOINT chest
			{
				OFFSET -0.002265 0.056032 0.002855
				CHANNELS 3 Zrotation Yrotation Xrotation
				JOINT lowerneck
				{
					OFFSET -0.013390 0.211636 -0.033468
					CHANNELS 3 Zrotation Yrotation Xrotation
					JOINT upperneck
					{
						OFFSET 0.010113 0.088937 0.050410
						CHANNELS 3 Zrotation Yrotation Xrotation
						End Site
						{
							OFFSET 0.000000 0.000000 0.000000
						}
					}
				}
				JOINT lclavicle
				{
					OFFSET 0.071702 0.114000 -0.018898
					CHANNELS 3 Zrotation Yrotation Xrotation
					JOINT lshoulder
					{
						OFFSET 0.122921 0.045205 -0.019046
						CHANNELS 3 Zrotation Yrotation Xrotation
						JOINT lelbow
						{
							OFFSET 0.255332 -0.015649 -0.022946
							CHANNELS 3 Zrotation Yrotation Xrotation
							JOINT lwrist
							{
								OFFSET 0.265709 0.012698 -0.007375
								CHANNELS 3 Zrotation Yrotation Xrotation
								End Site
								{
									OFFSET 0.000000 0.000000 0.000000
								}
							}
						}
					}
				}
				JOINT rclavicle
				{
					OFFSET -0.082954 0.112472 -0.023707
					CHANNELS 3 Zrotation Yrotation Xrotation
					JOINT rshoulder
					{
						OFFSET -0.113228 0.046853 -0.008472
						CHANNELS 3 Zrotation Yrotation Xrotation
						JOINT relbow
						{
							OFFSET -0.260127 -0.014369 -0.031269
							CHANNELS 3 Zrotation Yrotation Xrotation
							JOINT rwrist
							{
								OFFSET -0.269108 0.006794 -0.006027
								CHANNELS 3 Zrotation Yrotation Xrotation
								End Site
								{
									OFFSET 0.000000 0.000000 0.000000
								}
							}
						}
					}
				}
			}
		}
	}
}
MOTION
Frames: 11
Frame Time: 0.033333
-1.619544 0.373087 0.977663 93.757060 1.872438 84.531633 -5.989403 -1.568398 5.128787 -3.372193 -9.791825 6.762212 10.680190 16.921343 -16.096628 0.000000 -0.000000 0.000000 -5.697973 0.724397 -11.132175 2.982062 -1.239554 71.477518 11.832956 -5.839737 9.941976 0.000000 -0.000000 0.000000 -2.303156 -0.359902 13.965076 5.029383 -2.193613 -0.021391 0.778878 -1.414387 2.952814 7.155869 -10.211678 1.938242 0.564289 -14.694285 12.777147 -22.128542 2.891099 -0.314767 -53.804638 -5.511090 8.825783 4.082334 -32.812039 12.308815 0.516120 -0.285360 9.291021 24.707269 -2.160713 -4.374816 58.225106 -3.458810 15.534438 -12.758242 33.022795 0.506298 -15.124637 1.706512 9.744814 
-1.619483 0.372869 0.977773 93.815265 1.975373 84.543184 -5.809104 -1.681935 5.250138 -3.463736 -9.926173 6.525674 10.584930 17.051457 -15.962061 0.000000 -0.000000 0.000000 -5.671763 0.773546 -11.227207 3.195180 -1.172833 71.507690 11.771957 -6.112197 10.189958 0.000000 -0.000000 0.000000 -2.299337 -0.492497 14.063487 5.030420 -2.109010 -0.103760 0.758660 -1.405276 2.936426 7.151279 -9.522580 2.420430 0.536323 -13.833815 13.161853 -22.185475 2.977725 -0.220161 -53.677162 -5.632578 9.098292 4.283820 -33.113910 13.268493 0.405187 -0.260932 7.140956 24.776589 -2.185428 -4.061615 58.299166 -3.391103 16.118345 -13.224403 32.921942 1.158038 -15.195820 0.838377 7.814888 
-1.619302 0.372835 0.978031 93.925662 2.058679 84.534664 -5.705737 -1.561951 5.271439 -3.430398 -10.090003 6.514939 10.545601 17.003528 -15.990347 0.000000 -0.000000 0.000000 -5.707857 0.677273 -11.301556 3.207358 -1.137167 71.563698 11.885932 -6.208515 10.191371 0.000000 -0.000000 0.000000 -2.233466 -0.571282 14.294357 4.954097 -2.034697 -0.312628 0.851410 -1.628924 2.661933 6.804760 -9.136568 3.300506 0.383803 -12.444048 13.708795 -22.483249 2.990874 -0.056974 -53.336663 -5.403782 8.835577 4.264030 -33.386122 13.578538 0.134569 -0.349212 6.873271 24.712477 -2.089625 -3.607178 58.372654 -3.310705 16.079943 -13.260004 32.606826 1.072097 -15.433190 1.022763 7.844271 
-1.619056 0.372620 0.977868 94.036467 2.134208 84.545348 -5.674565 -1.532539 5.264168 -3.329894 -10.193204 6.550160 10.598359 17.054440 -15.993251 0.000000 -0.000000 0.000000 -5.822479 0.635366 -11.419293 3.175240 -1.220030 71.654491 12.012063 -6.055616 10.313435 0.000000 -0.000000 0.000000 -2.272320 -0.538927 14.273382 4.970090 -2.000496 -0.249526 0.774010 -1.473117 2.785763 6.854259 -8.432678 3.858355 0.307902 -12.391667 14.185251 -22.310942 2.924329 -0.109806 -53.470973 -5.689753 9.086653 4.371816 -33.452682 13.581036 -0.112570 -0.287074 6.766774 24.925545 -2.322934 -3.807377 58.269518 -3.383883 16.148262 -13.308289 32.774303 1.133929 -15.317407 0.957677 7.821508 
-1.618882 0.372362 0.977741 94.070288 2.197703 84.532583 -5.665517 -1.522973 5.256969 -3.234200 -10.175584 6.616376 10.699442 17.081431 -16.004612 0.000000 -0.000000 0.000000 -5.823608 0.608901 -11.479241 3.164839 -1.203284 71.724268 11.991377 -5.974852 10.503547 0.000000 -0.000000 0.000000 -2.263421 -0.539124 14.279567 4.981894 -1.995319 -0.192587 0.763125 -1.415448 2.841619 6.716277 -8.131328 4.188540 0.282883 -12.184638 14.184405 -22.251511 2.982046 -0.125099 -53.549477 -5.798277 9.058555 4.278798 -33.651986 13.785010 -0.375991 -0.201394 6.718759 24.910890 -2.439013 -3.691839 58.299603 -3.204618 16.095244 -13.301526 32.995440 1.256862 -15.373073 0.923338 7.724795 
-1.618624 0.372019 0.977669 94.078468 2.295434 84.531420 -5.669079 -1.457987 5.185857 -3.084167 -10.222547 6.776066 10.854737 17.241125 -16.063071 0.000000 -0.000000 0.000000 -5.753672 0.574294 -11.570774 3.147474 -1.121586 71.859475 11.908208 -5.921625 10.597230 0.000000 -0.000000 0.000000 -2.195201 -0.581374 14.331682 4.956400 -1.947461 -0.219862 0.790247 -1.445873 2.743697 6.444656 -7.759340 4.700365 0.135073 -11.434771 14.337900 -22.293482 3.080385 0.010532 -53.552696 -5.698076 8.847521 4.108979 -34.008938 14.054431 -0.687511 -0.001695 6.670115 24.818752 -2.483949 -3.405157 58.340140 -3.033584 15.992503 -13.271439 33.286255 1.334979 -15.412677 0.915620 7.626005 
-1.618191 0.371766 0.977645 94.008230 2.317456 84.486385 -5.770353 -1.486620 5.210824 -2.910840 -10.224604 6.846396 10.975585 17.453302 -16.133783 0.000000 -0.000000 0.000000 -5.745328 0.619660 -11.566554 3.118235 -1.062488 71.943887 11.875208 -5.975824 10.622484 0.000000 -0.000000 0.000000 -2.165658 -0.576321 14.393473 4.898204 -1.861834 -0.176563 0.770323 -1.485309 2.797898 6.275865 -7.285000 4.806794 0.001666 -10.932523 14.623302 -22.360033 3.216856 -0.143178 -53.505307 -5.602172 8.877554 3.927056 -34.134249 14.353703 -0.801631 -0.140094 6.519299 24.881609 -2.642165 -3.627212 58.274150 -2.964695 16.102459 -13.187134 33.541424 1.418324 -15.456810 1.039616 7.631516 
-1.617685 0.371712 0.977530 93.949131 2.325061 84.467234 -5.924959 -1.598256 5.197215 -2.740012 -10.298101 6.960014 11.219704 17.775775 -16.149727 0.000000 -0.000000 0.000000 -5.747995 0.652320 -11.532026 3.125135 -1.055948 71.972853 11.837281 -6.096398 10.628671 0.000000 -0.000000 0.000000 -2.099243 -0.585093 14.350220 4.851449 -1.827082 -0.165250 0.722405 -1.534603 2.753774 6.078840 -6.876039 5.079340 -0.273609 -10.259103 15.154376 -22.455094 3.274764 -0.034228 -53.511670 -5.510609 8.761907 3.877177 -34.036743 14.487281 -0.876792 -0.322236 6.606929 24.859929 -2.668932 -3.539407 58.317812 -2.878929 16.130989 -13.329116 33.713230 1.306778 -15.403740 1.234009 7.613614 
-1.617106 0.372019 0.977276 93.831752 2.317877 84.447808 -6.188620 -1.717574 5.153307 -2.485926 -10.320032 7.137200 11.438772 18.176169 -16.188526 0.000000 -0.000000 0.000000 -5.754467 0.639800 -11.487599 3.117440 -1.024688 72.003259 11.835622 -6.180228 10.366717 0.000000 -0.000000 0.000000 -1.912792 -0.577524 14.389289 4.757610 -1.787393 -0.254984 0.620816 -1.542841 2.665590 5.762613 -6.637974 5.521919 -0.624767 -9.802341 15.749392 -22.529082 3.288443 0.015111 -53.552413 -5.328287 8.695831 3.851290 -33.783090 14.544251 -0.982248 -0.305452 6.771800 24.802984 -2.764480 -3.433323 58.322473 -2.913057 16.076966 -13.440956 34.136737 1.188123 -15.333412 1.255278 7.528962 
-1.616406 0.372834 0.976852 93.607617 2.277755 84.428730 -6.487393 -1.740205 5.021183 -2.313607 -10.277328 7.520692 11.710659 18.533710 -16.341754 0.000000 -0.000000 0.000000 -5.747186 0.582930 -11.408682 3.147025 -0.904301 72.001748 11.906743 -6.214413 10.344535 0.000000 -0.000000 0.000000 -1.573524 -0.640652 14.707205 4.558195 -1.648846 -0.817517 0.481838 -1.515584 2.788450 5.251444 -6.330185 5.956292 -0.928683 -9.026733 16.218400 -22.718485 3.482887 -0.135630 -53.524970 -5.033629 8.575600 3.696479 -33.474412 14.833641 -1.178468 -0.133561 7.107550 24.679468 -3.038440 -3.394011 58.243929 -3.051745 16.018736 -13.364159 34.894078 1.303771 -15.351991 1.343077 7.568949 
-1.616108 0.373575 0.976389 93.374088 2.153349 84.410189 -6.678136 -1.679499 4.905442 -2.390802 -10.148407 7.814294 11.812842 18.615692 -16.468476 0.000000 -0.000000 0.000000 -5.823279 0.541604 -11.352431 3.085167 -0.813860 71.997058 11.969752 -6.107746 10.322799 0.000000 -0.000000 0.000000 -1.442101 -0.616415 14.950086 4.433681 -1.569371 -1.176694 0.389359 -1.415625 3.000250 4.939825 -6.099167 6.167276 -1.112780 -8.813912 16.336280 -22.788898 3.506975 -0.199891 -53.674346 -4.941779 8.550402 3.886726 -33.222315 14.648811 -1.234990 -0.037628 7.287583 24.620669 -3.158932 -3.322151 58.120864 -3.084770 15.996554 -13.329131 35.485937 1.442829 -15.384431 1.344026 7.522543 
